<?xml version="1.0" encoding="UTF-8"?>
<svg id="Layer_1" xmlns="http://www.w3.org/2000/svg" version="1.1" viewBox="0 0 353.91 140">
  <!-- Generator: Adobe Illustrator 30.1.0, SVG Export Plug-In . SVG Version: 2.1.1 Build 136)  -->
  <defs>
    <style>
      .st0, .st1, .st2 {
        fill-rule: evenodd;
      }

      .st0, .st3 {
        fill: #fe6900;
      }

      .st4, .st1 {
        fill: #fff;
      }

      .st5 {
        isolation: isolate;
      }

      .st2 {
        fill: #ab6d4a;
      }
    </style>
  </defs>
  <g id="_2278591710832">
    <path class="st0" d="M265.88,21.83v12.1c.79.07,1.44.65,1.3,1.58-.14.86-.72,1.01-1.73,1.08l-4.46,8.06c-.22.36-.43,1.01-.94.65v-.07.07c0,.36-.22.58-.36.86-.14.22-.29.5-.43.72,0,.72-.58,1.08-.72,1.73,1.08.94,5.04,2.02,7.06,1.94,0-.58-.07-1.37.07-1.87h.36c.22.5.07,1.3.14,1.87,1.94.07,5.83-1.01,7.06-1.94-.14-.5-.65-1.08-.72-1.3-.07-.14,0,.07,0-.14,0-.29.07-.36.29-.29s.14.07.43.58c.14.29.29.58.5.86.86-.43,2.38-1.66,2.95-2.3.5-.43,2.02-2.16,2.23-2.88-.29-.22-.58-.36-.86-.58-.43-.22-.65-.14-.5-.72.5,0,1.22.58,1.73.79.72-1.66,1.87-3.89,1.8-6.19v-.79l-1.66-.14c-.22.07-.14.07-.14-.07-.14-.5.14-.5.65-.5h1.15v-.94c0-1.08-.36-2.45-.65-3.38-.22-.58-.36-1.01-.58-1.51-.14-.36-.5-.94-.58-1.3-.29.29-1.37.86-1.8.86,0-.86,1.01-.72,1.44-1.3-.43-.94-1.66-2.3-2.3-2.95-.79-.79-1.73-1.51-2.88-2.23-.43.58-.86,1.66-1.22,1.37-.14-.14-.07.22-.07-.22,0-.22.22-.5.36-.65.14-.22.36-.58.43-.79-1.8-.94-4.46-2.09-7.06-1.87l-.07,1.66-.22.14h0Z"/>
    <path class="st1" d="M283.31,25.29l-1.44-2.31c-.22-.21-.43-.36-.65-.65-.22-.28-.36-.36-.58-.64-1.51-1.66-2.37-2.31-4.1-3.46-5.11-3.38-12.53-3.96-18.14-1.58-2.74,1.08-3.03,1.58-4.9,2.73-.29.15-.36.43-.65.58-.21.21-.14.07-.36.29-2.16,2.3-3.17,3.09-4.61,6.04-1.22,2.31-2.01,5.12-2.16,7.92-.28,5.19,1.16,8.86,3.68,12.82.14.14.43.5.57.65,1.3,1.65,1.44,1.94,3.1,3.31.72.58.93.65,1.44,1.01.29.21.5.29.79.5,5.33,3.39,12.24,3.96,18.07,1.59,1.3-.51,2.38-1.16,3.39-1.73l1.51-1.08c.29-.22.43-.43.65-.58,1.36-1.08,2.16-2.09,3.31-3.6.14-.14.14-.21.29-.36.07-.21.14-.29.28-.36l1.08-2.01c1.08-2.09,2.09-5.4,2.09-7.92.07-4.54-.57-7.42-2.66-11.16h0ZM281.5,44.73c-.29.57-.65.93-.94,1.36-.29.58-.65.8-1.01,1.23-1.58,1.8-3.02,2.95-5.11,4.1-5.9,3.31-14.18,2.74-19.44-1.44-.29-.21-.43-.29-.65-.5-.28-.15-.36-.36-.57-.51-1.51-1.29-.79-.72-1.73-1.8-1.01-1.08-1.66-2.01-2.38-3.31-2.95-5.69-2.88-12.6.51-18.07l1.44-2.02c2.16-2.3,2.09-2.3,4.25-3.81.43-.29.86-.58,1.36-.87,1.73-.93,4.83-2.01,7.06-2.08,4.1-.15,7.63.5,11.02,2.59.5.29,1,.65,1.36.93.29.29.36.22.72.51.15.14.36.36.51.57.5.36.86.58,1.22,1.08.22.22.36.44.58.65.14.22.36.36.5.58.15.14.15.21.22.36.79,1.08.79,1.01,1.58,2.37.58,1.01,1.01,2.16,1.37,3.24,1.58,5.12.72,10.3-1.87,14.84h0Z"/>
    <path class="st1" d="M281.65,27.23c-.86-1.8-1.51-2.45-2.66-3.96-.51-.65-1.73-1.66-2.38-2.09-.43-.36-.79-.65-1.29-.93-1.01-.58-1.73-1.01-2.88-1.52-2.6-1-4.76-1.22-7.56-1.15-2.88,0-7.85,1.73-9.72,3.53-.51.5-1.59,1.08-2.38,2.16-.5.58-1.01,1.15-1.44,1.8l-.43.65c-.79,1.37-.87,1.44-1.51,2.95-2.09,5.11-1.59,11.45,1.44,15.98l.86,1.3c.72.86,1.37,1.8,2.16,2.38.79.64,1.51,1.36,2.45,1.94,5.47,3.24,11.88,3.74,17.64.79l2.01-1.22c.58-.43.87-.51,1.3-.94.58-.65,1.08-.79,1.73-1.65.14-.22.29-.44.43-.65.86-.94.79-.87,1.44-1.87,3.38-5.04,3.6-12.1.79-17.5h0ZM280.43,44.01l-.79,1.29c-1.08,1.37-1.73,2.23-3.17,3.31-.1.05-.2.13-.29.22-.07.07-.22.14-.29.22-4.82,3.24-10.29,4.32-15.91,2.23-2.66-1.01-4.54-2.31-6.41-4.32-2.66-2.81-4.32-6.05-4.68-10.15-.21-2.6.15-5.04,1.01-7.42.58-1.58,1.87-4.03,3.17-5.33,1.58-1.44,1.15-1.44,3.17-2.81,2.08-1.51,5.47-2.88,8.06-2.95,3.02-.07,4.68,0,7.42,1.01,1.08.36,2.01.86,2.95,1.37.43.29.79.5,1.22.86,2.09,1.66,1.23,1.01,2.81,2.59.72.72.43.58.94,1.16.43.5.86,1.22,1.22,1.87,1.08,1.87,1.73,4.25,2.02,6.62.28,3.31-.65,7.49-2.45,10.23Z"/>
    <path class="st1" d="M261.5,9.3c-.58.14-.43.65-.43,1.37v1.8c0,2.23-.36,1.73,5.54,1.73,4.75,0,4.1.72,4.1-3.17,0-1.94.07-1.8-1.94-1.8-1.22,0-6.41-.14-7.27.07h0Z"/>
    <path class="st1" d="M260.06,45.23v.07c.5.36.72-.29.94-.65l4.46-8.06c1.01-.07,1.58-.22,1.73-1.08.14-.94-.5-1.51-1.3-1.58-1.51.29-1.66,1.3-1.01,2.3-.07.36-.36.72-.58,1.08l-3.17,5.62c-.14.36-.36.72-.58,1.08s-.58.79-.5,1.22h0Z"/>
    <path class="st1" d="M280.13,14.34c-.29.07-1.94,1.73-2.23,2.02-.43.58.29,1.01.58,1.3.22.22.79.94,1.15.94.43,0,1.94-1.58,2.23-1.94.43-.58-.22-1.01-.5-1.3s-.79-.94-1.22-1.01h0Z"/>
    <path class="st1" d="M249.75,16.43c.07.22,1.87,2.09,2.16,2.16.43.14.94-.58,1.22-.79.22-.22.94-.79.79-1.22-.07-.14-2.02-2.09-2.16-2.16-.5-.22-1.01.5-1.22.72s-1.01.79-.79,1.3h0Z"/>
    <path class="st1" d="M251.91,27.16c-.07.43,0,.36.36.58.58.36,1.44.94,2.02.94,0-.5,0-.43-.43-.65s-1.66-1.08-1.94-.86h0Z"/>
    <path class="st1" d="M273.22,21.9c-.07.22-.29.58-.43.79-.14.14-.36.43-.36.65,0,.43-.07.07.07.22.36.29.79-.79,1.22-1.37.29-.36.36-.36.36-.86-.72,0-.29.14-.86.58h0Z"/>
    <path class="st1" d="M265.6,50.56c.07.5-.14.58.29.79.36-.22.22-.29.29-.79-.07-.58.07-1.37-.14-1.87h-.36c-.14.5-.07,1.3-.07,1.87h-.01Z"/>
    <path class="st1" d="M252.41,35.15c-.29-.29-2.38-.29-2.66,0,.14.58.72.36,1.37.36.58,0,1.3.22,1.3-.36h0Z"/>
    <path class="st1" d="M278.91,43.14c.29.14.5.29.86.22.14-.58-.14-.36-.5-.72-.5-.22-1.22-.79-1.73-.79-.14.58.07.5.5.72.29.22.58.36.86.58h.01Z"/>
    <path class="st1" d="M258.53,48.61c.14-.65.72-1.01.72-1.73l-.43-.07c-.14.43-.36.79-.65,1.22l-.43.86c-.07.43-.07.14.07.22.36.29.36-.22.72-.5h0Z"/>
    <path class="st1" d="M251.91,43.36c.43.14.43,0,.79-.22l1.15-.65c.43-.22.43-.07.43-.65-.5,0-.5.07-.86.29-1.01.72-1.58.58-1.51,1.22h0Z"/>
    <path class="st1" d="M278.91,27.37c-.43.58-1.44.43-1.44,1.3.43,0,1.51-.58,1.8-.86.65-.43.5-.07.58-.58-.43-.29-.36,0-.94.14h0Z"/>
    <path class="st1" d="M273.22,48.61c.29.29.29.79.72.58.07-.14.07.14.07-.29l-.29-.58c-.22-.29-.36-.58-.5-.86-.29-.5-.22-.5-.43-.58s-.29,0-.29.29c0,.22-.07,0,0,.14.07.22.58.79.72,1.3h0Z"/>
    <path class="st1" d="M279.28,35.44l.14.07h1.8c.43.07.58.14.72-.29-.22-.36-.29-.29-.72-.22h-1.87l-.07.43h0Z"/>
    <path class="st1" d="M265.88,21.83l.22-.14.07-1.66c-.07-.5,0-.58-.22-.86-.5.07-.36.72-.36,1.3s-.14,1.15.29,1.37h0Z"/>
    <path class="st1" d="M259.19,23.63l-.86-1.94c-.14-.22-.29-.58-.5-.29-.29.22.29.94.43,1.22.58,1.01.5,1.15.94,1.01h-.01Z"/>
    <path class="st2" d="M279.28,35.44c0,.14-.07.14.14.07l1.66.14v.79l.14-.94h-1.8l-.14-.07.07-.43h1.87l-.14-1.01v.94h-1.15c-.5,0-.79,0-.65.5h0Z"/>
  </g>
  <path class="st1" d="M149.38,45.59v2.74h2.3v-2.74h-2.3ZM149.38,42.35v2.66h2.3v-2.66h-2.3ZM149.38,39.4v2.37h2.3v-2.37h-2.3ZM149.38,36.37v2.45h2.3v-2.45h-2.3ZM152.26,48.9v2.38h2.73v-2.38h-2.73ZM152.26,45.59v2.74h2.73v-2.74h-2.73ZM152.26,42.35v2.66h2.73v-2.66h-2.73ZM152.26,39.4v2.37h2.73v-2.37h-2.73ZM152.26,36.37v2.45h2.73v-2.45h-2.73ZM152.26,33.78v2.02h2.73v-2.02h-2.73ZM155.57,48.9v2.38h2.66v-2.38h-2.66ZM155.57,45.59v2.74h2.66v-2.74h-2.66ZM155.57,42.35v2.66h2.66v-2.66h-2.66ZM155.57,39.4v2.37h2.66v-2.37h-2.66ZM155.57,36.37v2.45h2.66v-2.45h-2.66ZM155.57,33.78v2.02h2.66v-2.02h-2.66ZM158.81,48.9v2.38h2.38v-2.38h-2.38ZM158.81,45.59v2.74h2.38v-2.74h-2.38ZM158.81,42.35v2.66h2.38v-2.66h-2.38ZM158.81,39.4v2.37h2.38v-2.37h-2.38ZM158.81,36.37v2.45h2.38v-2.45h-2.38ZM158.81,33.78v2.02h2.38v-2.02h-2.38ZM161.76,48.9v2.38h2.45v-2.38h-2.45ZM161.76,45.59v2.74h2.45v-2.74h-2.45ZM161.76,42.35v2.66h2.45v-2.66h-2.45ZM161.76,39.4v2.37h2.45v-2.37h-2.45ZM161.76,36.37v2.45h2.45v-2.45h-2.45ZM161.76,33.78v2.02h2.45v-2.02h-2.45ZM164.79,45.59v2.74h2.08v-2.74h-2.08ZM164.79,42.35v2.66h2.08v-2.66h-2.08ZM164.79,39.4v2.37h2.08v-2.37h-2.08ZM164.79,36.37v2.45h2.08v-2.45h-2.08ZM152.26,32.2v1.01h2.73v-2.24c-.93.29-1.87.72-2.73,1.23h0ZM150.82,33.21h.86v-.65c-.29.14-.57.36-.86.65ZM150.18,33.78c-.29.22-.58.51-.79.79v1.23h2.3v-2.02h-1.51,0ZM148.44,35.8h.36v-.51c-.14.22-.29.36-.36.51ZM148.09,36.37c-.5.8-.86,1.59-1.08,2.45h1.8v-2.45h-.72ZM146.79,39.4c-.22.79-.29,1.58-.36,2.37h2.37v-2.37h-2.01ZM146.44,42.35v.22c0,.79.07,1.65.21,2.44h2.16v-2.66h-2.37ZM146.79,45.59c.28,1.01.64,1.94,1.08,2.74h.93v-2.74h-2.01,0ZM148.23,48.9c.14.29.36.58.57.87v-.87h-.57ZM149.38,48.9v1.59c.21.28.5.5.72.79h1.58v-2.38h-2.3ZM150.75,51.85c.28.22.64.44.93.65v-.65h-.93ZM152.26,51.85v1.01c.86.51,1.8.94,2.73,1.23v-2.24h-2.73ZM155.57,51.85v2.38c.86.14,1.66.29,2.59.29h.07v-2.67h-2.66ZM158.81,51.85v2.6c.86,0,1.66-.15,2.38-.36v-2.24h-2.38ZM161.76,51.85v2.02c.87-.29,1.73-.65,2.45-1.08v-.94h-2.45ZM164.79,51.85v.51c.21-.15.5-.36.72-.51h-.72ZM164.79,48.9v2.38h1.36l.72-.72v-1.66h-2.08ZM167.45,48.9v.94c.22-.29.43-.58.58-.94h-.58ZM167.45,45.59v2.74h.94c.5-.8.86-1.73,1.08-2.74h-2.02ZM167.45,42.35v2.66h2.16c.14-.79.29-1.65.29-2.44v-.22h-2.45ZM169.47,39.4h-2.02v2.37h2.38c0-.79-.15-1.58-.36-2.37h0ZM168.25,36.37h-.79v2.45h1.87c-.29-.86-.65-1.65-1.08-2.45ZM167.45,35.22v.58h.43c-.14-.15-.29-.36-.43-.58ZM166.09,33.78h-1.29v2.02h2.08v-1.3c-.21-.21-.5-.5-.79-.72h0ZM164.79,32.7v.51h.64c-.21-.22-.43-.36-.64-.51ZM161.76,31.19v2.02h2.45v-.94c-.72-.43-1.58-.79-2.45-1.08ZM158.81,30.61v2.6h2.38v-2.24c-.72-.21-1.52-.36-2.38-.36h0ZM158.16,30.54c-.93,0-1.73.15-2.59.29v2.38h2.66v-2.67h-.07Z"/>
  <path class="st4" d="M150.18,57.97v48.6h15.48v-48.6h-15.48ZM141.4,85.91c-.87-1.58-2.31-3.17-4.4-4.61-1.15-.86-4.53-2.52-10.15-4.97l-1.01-.5c-3.02-1.37-5.04-2.52-6.12-3.6-1.08-1.01-1.58-2.16-1.58-3.53,0-1.58.65-2.95,1.87-4.03,1.3-1.08,2.95-1.58,4.9-1.58,2.3,0,4.32.57,5.97,1.72,1.73,1.23,3.1,2.96,4.18,5.26l6.26-3.82c-1.65-3.09-4.03-5.4-7.05-6.98-3.03-1.66-6.55-2.45-10.59-2.45-5.68,0-10.29,1.51-13.89,4.47-3.53,2.95-5.33,6.76-5.33,11.44,0,2.16.43,4.04,1.3,5.62.86,1.58,2.37,3.17,4.46,4.75,1.01.79,4.03,2.38,9,4.68l2.23,1.08c2.31,1.08,3.96,2.23,4.97,3.31s1.51,2.24,1.51,3.6c0,1.66-.72,3.03-2.01,4.11-1.37,1.08-3.1,1.58-5.19,1.58s-3.89-.57-5.54-1.87c-1.73-1.22-3.1-3.02-4.25-5.4l-7.56,4.03c1.73,3.03,4.25,5.4,7.56,7.06,3.31,1.73,7.13,2.52,11.45,2.52,6.05,0,10.94-1.51,14.69-4.47,3.81-3.02,5.68-6.91,5.68-11.66,0-2.23-.43-4.1-1.36-5.76h0ZM88.4,57.97v28.73c0,4.83-.79,8.21-2.23,10.08-1.51,1.95-4.1,2.95-7.7,2.95s-6.19-1-7.78-2.95c-1.51-1.94-2.3-5.25-2.3-10.08v-28.73h-15.41v30.96c0,3.46.43,6.2,1.15,8.21.79,2.02,2.16,3.82,4.03,5.47,1.8,1.52,4.18,2.81,7.13,3.75,2.95.93,6.12,1.37,9.36,1.37,7.2,0,12.6-1.59,16.2-4.68,3.6-3.17,5.4-7.85,5.4-14.12v-30.96h-7.85,0ZM42.6,57.97l-11.59,18.58-10.66-18.58H3.22l16.05,25.56v23.04h15.63v-23.76l15.69-24.84h-7.99Z"/>
  <g class="st5">
    <g class="st5">
      <path class="st3" d="M225.34,58.52v4.9h-11.99v43.95h-15.03v-43.95h-12.06v-4.9h39.08Z"/>
      <path class="st3" d="M243.22,58.52v48.85h-14.17v-48.85h14.17Z"/>
      <path class="st3" d="M297.09,58.52v48.85h-13.67v-34l-9.52,34h-7.91l-9.77-33.42v33.42h-4.76v-48.85h14.39l8.37,29.49,8.34-29.49h14.53Z"/>
      <path class="st3" d="M337.16,58.52v4.9h-17.5v14.78h14.71v4.9h-14.71v19.36h20.47v4.9h-34.64v-48.85h31.67Z"/>
    </g>
  </g>
  <path class="st3" d="M332.91,130.81h-138.96c-9.8,0-17.77-7.39-17.77-16.47v-62.78c0-9.08,7.97-16.47,17.77-16.47h44.57v4h-44.57c-7.59,0-13.77,5.59-13.77,12.47v62.78c0,6.88,6.18,12.47,13.77,12.47h138.96c7.59,0,13.77-5.59,13.77-12.47v-62.78c0-6.88-6.18-12.47-13.77-12.47h-44.78v-4h44.78c9.8,0,17.77,7.39,17.77,16.47v62.78c0,9.08-7.97,16.47-17.77,16.47h0Z"/>
</svg>