<?xml version="1.0" encoding="UTF-8"?>
<svg id="Layer_1" xmlns="http://www.w3.org/2000/svg" version="1.1" viewBox="0 0 353.91 140">
  <!-- Generator: Adobe Illustrator 30.1.0, SVG Export Plug-In . SVG Version: 2.1.1 Build 136)  -->
  <defs>
    <style>
      .st0, .st1, .st2 {
        fill-rule: evenodd;
      }

      .st0, .st3 {
        fill: #252f50;
      }

      .st1, .st4 {
        fill: #fe6900;
      }

      .st5 {
        isolation: isolate;
      }

      .st2 {
        fill: #ab6d4a;
      }
    </style>
  </defs>
  <g id="_2278591710832">
    <path class="st1" d="M265.88,21.83v12.1c.79.07,1.44.65,1.3,1.58-.14.86-.72,1.01-1.73,1.08l-4.46,8.06c-.22.36-.43,1.01-.94.65v-.07.07c0,.36-.22.58-.36.86-.14.22-.29.5-.43.72,0,.72-.58,1.08-.72,1.73,1.08.94,5.04,2.02,7.06,1.94,0-.58-.07-1.37.07-1.87h.36c.22.5.07,1.3.14,1.87,1.94.07,5.83-1.01,7.06-1.94-.14-.5-.65-1.08-.72-1.3-.07-.14,0,.07,0-.14,0-.29.07-.36.29-.29s.14.07.43.58c.14.29.29.58.5.86.86-.43,2.38-1.66,2.95-2.3.5-.43,2.02-2.16,2.23-2.88-.29-.22-.58-.36-.86-.58-.43-.22-.65-.14-.5-.72.5,0,1.22.58,1.73.79.72-1.66,1.87-3.89,1.8-6.19v-.79l-1.66-.14c-.22.07-.14.07-.14-.07-.14-.5.14-.5.65-.5h1.15v-.94c0-1.08-.36-2.45-.65-3.38-.22-.58-.36-1.01-.58-1.51-.14-.36-.5-.94-.58-1.3-.29.29-1.37.86-1.8.86,0-.86,1.01-.72,1.44-1.3-.43-.94-1.66-2.3-2.3-2.95-.79-.79-1.73-1.51-2.88-2.23-.43.58-.86,1.66-1.22,1.37-.14-.14-.07.22-.07-.22,0-.22.22-.5.36-.65.14-.22.36-.58.43-.79-1.8-.94-4.46-2.09-7.06-1.87l-.07,1.66-.22.14h0Z"/>
    <path class="st0" d="M283.31,25.28l-1.44-2.3c-.22-.22-.43-.36-.65-.65s-.36-.36-.58-.65c-1.51-1.66-2.38-2.3-4.1-3.46-5.11-3.38-12.53-3.96-18.14-1.58-2.74,1.08-3.02,1.58-4.9,2.74-.29.14-.36.43-.65.58-.22.22-.14.07-.36.29-2.16,2.3-3.17,3.1-4.61,6.05-1.22,2.3-2.02,5.11-2.16,7.92-.29,5.18,1.15,8.86,3.67,12.82.14.14.43.5.58.65,1.3,1.66,1.44,1.94,3.1,3.31.72.58.94.65,1.44,1.01.29.22.5.29.79.5,5.33,3.38,12.24,3.96,18.07,1.58,1.3-.5,2.38-1.15,3.38-1.73l1.51-1.08c.29-.22.43-.43.65-.58,1.37-1.08,2.16-2.09,3.31-3.6.14-.14.14-.22.29-.36.07-.22.14-.29.29-.36l1.08-2.02c1.08-2.09,2.09-5.4,2.09-7.92.07-4.54-.58-7.42-2.66-11.16h0ZM281.51,44.72c-.29.58-.65.94-.94,1.37-.29.57-.65.79-1.01,1.22-1.58,1.8-3.02,2.95-5.11,4.1-.96.54-1.98.97-3.04,1.31-5.47,1.73-12,.76-16.41-2.74-.29-.22-.43-.29-.65-.5-.29-.14-.36-.36-.58-.5-.85-.73-.99-.87-1.12-1.04,0,0,.01-.01,0-.01-.11-.13-.21-.29-.61-.75-1.01-1.08-1.66-2.02-2.38-3.31-2.37-4.58-2.79-9.95-1.1-14.72.41-1.16.95-2.29,1.61-3.36l1.44-2.02c.66-.71,1.12-1.2,1.5-1.59.52-.54.89-.87,1.47-1.31.08-.07.17-.13.27-.2.18-.14.39-.28.62-.44.12-.09.25-.18.39-.28.02-.01.04-.03.06-.04.17-.11.34-.23.52-.34.05-.03.1-.06.16-.09.17-.12.34-.22.53-.33.03-.02.07-.04.1-.06.22-.12.45-.24.71-.36.63-.29,1.37-.58,2.15-.85,1.4-.47,2.93-.83,4.19-.87h.01c4.1-.15,7.63.49,11.02,2.58.5.29,1.01.65,1.37.94.29.29.36.22.72.5.14.14.36.36.5.58.5.36.86.58,1.22,1.08.22.22.36.43.58.65.14.22.36.36.5.58.14.14.14.22.22.36.44.6.63.85.87,1.18.01,0,0,.01,0,.01.06.07.11.15.16.24h0c.14.23.31.52.55.95.58,1.01,1.01,2.16,1.37,3.24,1.32,4.26.94,8.58-.72,12.53-.33.78-.71,1.54-1.14,2.29h0Z"/>
    <path class="st0" d="M281.65,27.23c-.16-.34-.32-.64-.47-.91-.1-.18-.19-.34-.3-.5-.15-.25-.3-.47-.45-.69-.1-.14-.21-.28-.32-.42,0,0-.01,0,0-.01-.22-.28-.45-.57-.71-.9h0c-.13-.18-.26-.35-.41-.53-.06-.08-.14-.17-.22-.26-.57-.63-1.59-1.46-2.16-1.84-.43-.36-.79-.65-1.3-.94-1.01-.58-1.73-1.01-2.88-1.51-2.59-1.01-4.75-1.22-7.56-1.15h0c-2.88.01-7.85,1.74-9.72,3.54-.06.06-.13.13-.21.19-.16.14-.35.28-.56.44-.3.23-.64.49-.97.81-.22.21-.44.46-.64.73-.5.58-1.01,1.15-1.44,1.8l-.43.65c-.54.94-.75,1.27-1.03,1.87-.11.22-.22.47-.37.8-.03.09-.07.18-.11.28-2.09,5.11-1.58,11.44,1.44,15.98l.86,1.3c.09.11.18.22.27.33.18.21.35.43.52.64.17.22.35.43.53.63.27.29.55.56.84.77.1.08.2.16.29.25.49.41.96.84,1.49,1.24.21.16.44.31.67.45,5.47,3.24,11.88,3.74,17.64.79l2.02-1.22c.22-.16.39-.27.55-.37.11-.07.2-.13.3-.19.14-.1.28-.21.45-.38l.21-.21c.28-.28.55-.46.84-.71.07-.07.14-.13.22-.21.15-.14.3-.31.46-.52l.43-.65c.11-.12.2-.22.28-.31.04-.05.08-.09.12-.12.46-.51.51-.62,1.04-1.44,3.38-5.04,3.6-12.1.79-17.5h0ZM280.42,43.99l-.79,1.3c-1.08,1.37-1.73,2.23-3.17,3.31-.09.05-.19.12-.29.22-.07.07-.22.14-.29.22-4.82,3.24-10.3,4.32-15.91,2.23-2.66-1.01-4.54-2.3-6.41-4.32-2.66-2.81-4.32-6.05-4.68-10.15-.22-2.59.14-5.04,1.01-7.42.58-1.58,1.87-4.03,3.17-5.33,1.58-1.44,1.15-1.44,3.17-2.81,2.09-1.51,5.47-2.88,8.06-2.95h0c3.02-.06,4.68.01,7.42,1.02,1.08.36,2.02.86,2.95,1.37.43.29.79.5,1.22.86,2.09,1.66,1.22,1.01,2.81,2.59.72.72.43.58.94,1.15.43.5.86,1.22,1.22,1.87,1.08,1.87,1.73,4.25,2.02,6.62.29,3.31-.65,7.49-2.45,10.22h0Z"/>
    <path class="st0" d="M261.49,9.3c-.58.14-.43.65-.43,1.37v1.8c0,2.23-.36,1.73,5.54,1.73,4.75,0,4.1.72,4.1-3.17,0-1.94.07-1.8-1.94-1.8-1.22,0-6.41-.14-7.27.07h0Z"/>
    <path class="st0" d="M260.05,45.23v.07c.5.36.72-.29.94-.65l4.46-8.06c1.01-.07,1.58-.22,1.73-1.08.14-.94-.5-1.51-1.3-1.58-1.51.29-1.66,1.3-1.01,2.3-.07.36-.36.72-.58,1.08l-3.17,5.62c-.14.36-.36.72-.58,1.08s-.58.79-.5,1.22h0Z"/>
    <path class="st0" d="M280.13,14.34c-.29.07-1.94,1.73-2.23,2.02-.43.58.29,1.01.58,1.3.22.22.79.94,1.15.94.43,0,1.94-1.58,2.23-1.94.43-.58-.22-1.01-.5-1.3s-.79-.94-1.22-1.01h0Z"/>
    <path class="st0" d="M249.75,16.43c.07.22,1.87,2.09,2.16,2.16.43.14.94-.58,1.22-.79.22-.22.94-.79.79-1.22-.07-.14-2.02-2.09-2.16-2.16-.5-.22-1.01.5-1.22.72s-1.01.79-.79,1.3h0Z"/>
    <path class="st0" d="M251.91,27.15c-.07.43,0,.36.36.58.58.36,1.44.94,2.02.94,0-.5,0-.43-.43-.65s-1.66-1.08-1.94-.86h0Z"/>
    <path class="st0" d="M273.22,21.9c-.07.22-.29.58-.43.79-.14.14-.36.43-.36.65,0,.43-.07.07.07.22.36.29.79-.79,1.22-1.37.29-.36.36-.36.36-.86-.72,0-.29.14-.86.58h0Z"/>
    <path class="st0" d="M265.59,50.55c.07.5-.14.58.29.79.36-.22.22-.29.29-.79-.07-.58.07-1.37-.14-1.87h-.36c-.14.5-.07,1.3-.07,1.87h-.01Z"/>
    <path class="st0" d="M252.41,35.15c-.29-.29-2.38-.29-2.66,0,.14.58.72.36,1.37.36.58,0,1.3.22,1.3-.36h0Z"/>
    <path class="st0" d="M278.91,43.14c.29.14.5.29.86.22.14-.58-.14-.36-.5-.72-.5-.22-1.22-.79-1.73-.79-.14.58.07.5.5.72.29.22.58.36.86.58h.01Z"/>
    <path class="st0" d="M258.53,48.61c.14-.65.72-1.01.72-1.73l-.43-.07c-.14.43-.36.79-.65,1.22l-.43.86c-.07.43-.07.14.07.22.36.29.36-.22.72-.5h0Z"/>
    <path class="st0" d="M251.91,43.35c.43.14.43,0,.79-.22l1.15-.65c.43-.22.43-.07.43-.65-.5,0-.5.07-.86.29-1.01.72-1.58.58-1.51,1.22h0Z"/>
    <path class="st0" d="M278.91,27.37c-.43.58-1.44.43-1.44,1.3.43,0,1.51-.58,1.8-.86.65-.43.5-.07.58-.58-.43-.29-.36,0-.94.14h0Z"/>
    <path class="st0" d="M273.22,48.61c.29.29.29.79.72.58.07-.14.07.14.07-.29l-.29-.58c-.22-.29-.36-.58-.5-.86-.29-.5-.22-.5-.43-.58s-.29,0-.29.29c0,.22-.07,0,0,.14.07.22.58.79.72,1.3h0Z"/>
    <path class="st0" d="M279.27,35.43l.14.07h1.8c.43.07.58.14.72-.29-.22-.36-.29-.29-.72-.22h-1.87l-.07.43h0Z"/>
    <path class="st0" d="M265.88,21.83l.22-.14.07-1.66c-.07-.5,0-.58-.22-.86-.5.07-.36.72-.36,1.3s-.14,1.15.29,1.37h0Z"/>
    <path class="st0" d="M259.18,23.63l-.86-1.94c-.14-.22-.29-.58-.5-.29-.29.22.29.94.43,1.22.58,1.01.5,1.15.94,1.01h-.01Z"/>
    <path class="st2" d="M279.27,35.43c0,.14-.07.14.14.07l1.66.14v.79l.14-.94h-1.8l-.14-.07.07-.43h1.87l-.14-1.01v.94h-1.15c-.5,0-.79,0-.65.5h0Z"/>
  </g>
  <path class="st0" d="M158.17,30.54h.07v2.66h-2.66v-2.38c.86-.14,1.66-.29,2.59-.29h0ZM158.81,30.61c.86,0,1.66.14,2.38.36v2.23h-2.38v-2.59ZM161.77,31.19c.86.29,1.73.65,2.45,1.08v.94h-2.45v-2.02ZM164.79,32.7c.22.14.43.29.65.5h-.65v-.5ZM166.09,33.78c.29.22.58.5.79.72v1.3h-2.09v-2.02h1.3ZM167.45,35.22c.14.22.29.43.43.58h-.43v-.58ZM168.25,36.37c.43.79.79,1.58,1.08,2.45h-1.87v-2.45h.79ZM169.47,39.39c.22.79.36,1.58.36,2.38h-2.38v-2.38h2.02ZM169.9,42.35v.22c0,.79-.14,1.66-.29,2.45h-2.16v-2.66h2.45ZM169.47,45.59c-.22,1.01-.58,1.94-1.08,2.74h-.94v-2.74h2.02ZM168.03,48.9c-.14.36-.36.65-.58.94v-.94h.58ZM166.88,50.55l-.72.72h-1.37v-2.38h2.09v1.66ZM165.51,51.85c-.22.14-.5.36-.72.5v-.5h.72ZM164.21,52.79c-.72.43-1.58.79-2.45,1.08v-2.02h2.45v.94ZM161.19,54.08c-.72.22-1.51.36-2.38.36v-2.59h2.38v2.23ZM158.24,54.51h-.07c-.94,0-1.73-.14-2.59-.29v-2.38h2.66v2.66h0ZM155,54.08c-.94-.29-1.87-.72-2.74-1.22v-1.01h2.74v2.23ZM151.69,52.5c-.29-.22-.65-.43-.94-.65h.94v.65ZM150.1,51.27c-.22-.29-.5-.5-.72-.79v-1.58h2.3v2.38h-1.58ZM148.81,49.76c-.22-.29-.43-.58-.58-.86h.58v.86ZM147.87,48.32c-.43-.79-.79-1.73-1.08-2.74h2.02v2.74h-.94ZM146.65,45.01c-.14-.79-.22-1.66-.22-2.45v-.22h2.38v2.66h-2.16ZM146.43,41.77c.07-.79.14-1.58.36-2.38h2.02v2.38h-2.38,0ZM147.01,38.82c.22-.86.58-1.66,1.08-2.45h.72v2.45h-1.8ZM148.45,35.79c.07-.14.22-.29.36-.5v.5h-.36ZM149.38,34.57c.22-.29.5-.58.79-.79h1.51v2.02h-2.3v-1.22h0ZM150.82,33.2c.29-.29.58-.5.86-.65v.65h-.86ZM152.26,32.19c.86-.5,1.8-.94,2.74-1.22v2.23h-2.74v-1.01ZM166.88,36.37h-2.09v2.45h2.09v-2.45ZM166.88,39.39h-2.09v2.38h2.09v-2.38ZM166.88,42.35h-2.09v2.66h2.09v-2.66ZM166.88,45.59h-2.09v2.74h2.09v-2.74ZM164.21,33.78h-2.45v2.02h2.45v-2.02ZM164.21,36.37h-2.45v2.45h2.45v-2.45ZM164.21,39.39h-2.45v2.38h2.45v-2.38ZM164.21,42.35h-2.45v2.66h2.45v-2.66ZM164.21,45.59h-2.45v2.74h2.45v-2.74ZM164.21,48.9h-2.45v2.38h2.45v-2.38ZM161.19,33.78h-2.38v2.02h2.38v-2.02ZM161.19,36.37h-2.38v2.45h2.38v-2.45ZM161.19,39.39h-2.38v2.38h2.38v-2.38ZM161.19,42.35h-2.38v2.66h2.38v-2.66ZM161.19,45.59h-2.38v2.74h2.38v-2.74ZM161.19,48.9h-2.38v2.38h2.38v-2.38ZM158.24,33.78h-2.66v2.02h2.66v-2.02ZM158.24,36.37h-2.66v2.45h2.66v-2.45ZM158.24,39.39h-2.66v2.38h2.66v-2.38ZM158.24,42.35h-2.66v2.66h2.66v-2.66ZM158.24,45.59h-2.66v2.74h2.66v-2.74ZM158.24,48.9h-2.66v2.38h2.66v-2.38ZM155,33.78h-2.74v2.02h2.74v-2.02ZM155,36.37h-2.74v2.45h2.74v-2.45ZM155,39.39h-2.74v2.38h2.74v-2.38ZM155,42.35h-2.74v2.66h2.74v-2.66ZM155,45.59h-2.74v2.74h2.74v-2.74ZM155,48.9h-2.74v2.38h2.74v-2.38ZM151.69,36.37h-2.3v2.45h2.3v-2.45ZM151.69,39.39h-2.3v2.38h2.3v-2.38ZM151.69,42.35h-2.3v2.66h2.3v-2.66ZM151.69,45.59h-2.3v2.74h2.3v-2.74Z"/>
  <path class="st3" d="M19.28,106.57v-23.04L3.22,57.97h17.14l10.66,18.58,11.59-18.58h7.99l-15.7,24.84v23.76h-15.62ZM52.97,57.97h15.41v28.73c0,4.82.79,8.14,2.3,10.08,1.58,1.94,4.1,2.95,7.78,2.95s6.19-1.01,7.7-2.95c1.44-1.87,2.23-5.26,2.23-10.08v-28.73h7.85v30.96c0,6.26-1.8,10.94-5.4,14.11-3.6,3.1-9,4.68-16.2,4.68-3.24,0-6.41-.43-9.36-1.37s-5.33-2.23-7.13-3.74c-1.87-1.66-3.24-3.46-4.03-5.47-.72-2.02-1.15-4.75-1.15-8.21v-30.96h0ZM110.93,94.19c1.15,2.38,2.52,4.18,4.25,5.4,1.66,1.3,3.53,1.87,5.54,1.87s3.82-.5,5.18-1.58c1.3-1.08,2.02-2.45,2.02-4.1,0-1.37-.5-2.52-1.51-3.6s-2.66-2.23-4.97-3.31l-2.23-1.08c-4.97-2.3-7.99-3.89-9-4.68-2.09-1.58-3.6-3.17-4.46-4.75s-1.3-3.46-1.3-5.62c0-4.68,1.8-8.5,5.33-11.45,3.6-2.95,8.21-4.46,13.9-4.46,4.03,0,7.56.79,10.58,2.45,3.02,1.58,5.4,3.89,7.06,6.98l-6.26,3.82c-1.08-2.3-2.45-4.03-4.18-5.26-1.66-1.15-3.67-1.73-5.98-1.73-1.94,0-3.6.5-4.9,1.58-1.22,1.08-1.87,2.45-1.87,4.03,0,1.37.5,2.52,1.58,3.53,1.08,1.08,3.1,2.23,6.12,3.6l1.01.5c5.62,2.45,9,4.1,10.15,4.97,2.09,1.44,3.53,3.02,4.39,4.61.94,1.66,1.37,3.53,1.37,5.76,0,4.75-1.87,8.64-5.69,11.66-3.74,2.95-8.64,4.46-14.69,4.46-4.32,0-8.14-.79-11.45-2.52-3.31-1.66-5.83-4.03-7.56-7.06l7.56-4.03h.01ZM165.65,106.57h-15.48v-48.6h15.48v48.6Z"/>
  <g class="st5">
    <g class="st5">
      <path class="st4" d="M225.33,58.52v4.9h-11.99v43.95h-15.03v-43.95h-12.06v-4.9h39.08Z"/>
      <path class="st4" d="M243.22,58.52v48.85h-14.17v-48.85h14.17Z"/>
      <path class="st4" d="M297.08,58.52v48.85h-13.67v-34l-9.52,34h-7.91l-9.77-33.42v33.42h-4.76v-48.85h14.39l8.37,29.49,8.34-29.49h14.53Z"/>
      <path class="st4" d="M337.16,58.52v4.9h-17.5v14.78h14.71v4.9h-14.71v19.36h20.47v4.9h-34.64v-48.85h31.67Z"/>
    </g>
  </g>
  <path class="st4" d="M332.91,130.81h-138.96c-9.8,0-17.77-7.39-17.77-16.47v-62.78c0-9.08,7.97-16.47,17.77-16.47h44.57v4h-44.57c-7.59,0-13.77,5.59-13.77,12.47v62.78c0,6.88,6.18,12.47,13.77,12.47h138.96c7.59,0,13.77-5.59,13.77-12.47v-62.78c0-6.88-6.18-12.47-13.77-12.47h-44.78v-4h44.78c9.8,0,17.77,7.39,17.77,16.47v62.78c0,9.08-7.97,16.47-17.77,16.47h0Z"/>
</svg>